<svg width="46" height="24" viewBox="0 0 46 24" fill="none" xmlns="http://www.w3.org/2000/svg">
<path d="M28.904 24C27.0527 24 25.2579 23.2689 23.8645 21.8755L11.8843 9.8945C10.759 8.76996 9.22783 8.43077 7.75311 8.9663C6.13333 9.55458 5.12821 11.1868 5.12821 12.9099V21.4359C5.12821 22.852 3.98022 24 2.5641 24C1.14799 24 0 22.852 0 21.4359V13.0542C0 8.96557 2.55092 5.1978 6.45788 3.99267C9.67839 3 13.0784 3.8359 15.5106 6.26813L27.4916 18.2491C28.3956 19.1531 29.4418 18.8205 29.7399 18.696C30.0388 18.5722 31.0139 18.0696 31.0139 16.789V11.4498C31.0139 5.12601 36.1399 0 42.4637 0C43.8799 0 45.0278 1.14799 45.0278 2.5641C45.0278 3.98022 43.8799 5.12821 42.4637 5.12821C38.9722 5.12821 36.1421 7.95824 36.1421 11.4498V16.474C36.1421 19.6645 34.1993 22.633 31.17 23.6315C30.4205 23.8791 29.6579 24 28.904 24Z" fill="white"/>
</svg>
